<svg width="109" height="109" viewBox="0 0 109 109" fill="none" xmlns="http://www.w3.org/2000/svg">
<g filter="url(#filter0_d_1_331)">
<path d="M71.7703 10H27.0989C20.4168 10 15 15.4168 15 22.0989V66.7703C15 73.4523 20.4168 78.8691 27.0989 78.8691H71.7703C78.4523 78.8691 83.8691 73.4523 83.8691 66.7703V22.0989C83.8691 15.4168 78.4523 10 71.7703 10Z" fill="#FF4103"/>
</g>
<path d="M62.4391 29.3486V39.6909C60.4089 37.3244 57.4616 36.2112 54.127 36.2112C51.2208 36.2112 48.6026 36.9904 46.4901 38.4157C45.9069 38.8053 45.3648 39.2457 44.8639 39.7321C42.9087 37.2711 39.8597 36.1096 36.2881 36.1096C33.6553 36.1096 31.3081 36.7291 29.4497 37.9003C29.3722 37.9462 29.2948 37.9946 29.2198 38.0455C28.6148 38.4496 28.0655 38.9118 27.5791 39.4344V29.1236C27.5791 27.5216 26.2821 26.2246 24.6802 26.2246H24.3632C22.7613 26.2246 21.4642 27.5216 21.4642 29.1236V59.623C21.4642 61.225 22.7613 62.522 24.3632 62.522H24.6802C26.2821 62.522 27.5791 61.225 27.5791 59.623V49.3122C27.5791 45.8276 28.881 43.4901 31.0395 42.3189C32.1187 41.7309 33.4157 41.4356 34.8676 41.4356C38.7805 41.4356 41.0818 43.6861 41.0818 48.3346V49.213C41.0818 49.2759 41.0818 49.3388 41.0818 49.3993C41.0818 49.4598 41.0818 49.5251 41.0818 49.5856C41.135 54.7398 43.4992 58.718 47.1967 60.8644C49.1761 62.0163 51.5378 62.6406 54.127 62.6406C57.6551 62.6406 60.6509 61.4331 62.6811 58.9673V59.4028C62.6811 61.0048 63.9781 62.3018 65.5801 62.3018C67.182 62.3018 68.479 61.0048 68.479 59.4028V29.3413C68.479 27.7394 67.182 26.4424 65.5801 26.4424H65.3381C63.7362 26.4424 62.4391 27.7394 62.4391 29.3413V29.3486ZM54.853 57.4767C52.3751 57.4767 50.2239 56.4579 48.8373 54.6648C47.9153 53.4791 47.3297 51.957 47.1967 50.1712V48.6395C47.3225 46.9214 47.8694 45.4501 48.7308 44.2862C50.115 42.4084 52.3122 41.334 54.853 41.334C59.2038 41.334 62.5359 44.4749 62.5359 49.4041C62.5359 54.3333 59.2038 57.4742 54.853 57.4742V57.4767Z" fill="white"/>
<path d="M73.9566 62.2281C75.8597 62.2281 77.4024 60.6853 77.4024 58.7823C77.4024 56.8792 75.8597 55.3364 73.9566 55.3364C72.0535 55.3364 70.5107 56.8792 70.5107 58.7823C70.5107 60.6853 72.0535 62.2281 73.9566 62.2281Z" fill="white"/>
<defs>
<filter id="filter0_d_1_331" x="0" y="0" width="108.869" height="108.869" filterUnits="userSpaceOnUse" color-interpolation-filters="sRGB">
<feFlood flood-opacity="0" result="BackgroundImageFix"/>
<feColorMatrix in="SourceAlpha" type="matrix" values="0 0 0 0 0 0 0 0 0 0 0 0 0 0 0 0 0 0 127 0" result="hardAlpha"/>
<feOffset dx="5" dy="10"/>
<feGaussianBlur stdDeviation="10"/>
<feColorMatrix type="matrix" values="0 0 0 0 1 0 0 0 0 0.254902 0 0 0 0 0.0117647 0 0 0 0.3 0"/>
<feBlend mode="normal" in2="BackgroundImageFix" result="effect1_dropShadow_1_331"/>
<feBlend mode="normal" in="SourceGraphic" in2="effect1_dropShadow_1_331" result="shape"/>
</filter>
</defs>
</svg>
